<mxfile host="Electron" agent="Mozilla/5.0 (Windows NT 10.0; Win64; x64) AppleWebKit/537.36 (KHTML, like Gecko) draw.io/28.1.2 Chrome/138.0.7204.243 Electron/37.4.0 Safari/537.36" version="28.1.2">
  <diagram name="หน้า-1" id="BYqcdSc_AoZmuEhcFPxz">
    <mxGraphModel dx="1303" dy="783" grid="1" gridSize="10" guides="1" tooltips="1" connect="1" arrows="1" fold="1" page="1" pageScale="1" pageWidth="827" pageHeight="1169" math="0" shadow="0">
      <root>
        <mxCell id="0" />
        <mxCell id="1" parent="0" />
        <mxCell id="O932bBKoCJrC0d9glII3-1" value="Start" style="ellipse;whiteSpace=wrap;html=1;" vertex="1" parent="1">
          <mxGeometry x="353" y="70" width="120" height="60" as="geometry" />
        </mxCell>
        <mxCell id="O932bBKoCJrC0d9glII3-2" value="ประกาศตัวแปร num1, num2, num3, sum" style="rectangle;whiteSpace=wrap;html=1;" vertex="1" parent="1">
          <mxGeometry x="293" y="170" width="240" height="60" as="geometry" />
        </mxCell>
        <mxCell id="O932bBKoCJrC0d9glII3-3" value="แสดงข้อความ &quot;Enter number : &quot;" style="parallelogram;whiteSpace=wrap;html=1;" vertex="1" parent="1">
          <mxGeometry x="293" y="270" width="240" height="60" as="geometry" />
        </mxCell>
        <mxCell id="O932bBKoCJrC0d9glII3-4" value="รับค่าจำนวนเต็ม num1, num2, num3 จากผู้ใช้" style="parallelogram;whiteSpace=wrap;html=1;" vertex="1" parent="1">
          <mxGeometry x="283" y="370" width="260" height="60" as="geometry" />
        </mxCell>
        <mxCell id="O932bBKoCJrC0d9glII3-5" value="sum = num1 + num2 + num3" style="rectangle;whiteSpace=wrap;html=1;" vertex="1" parent="1">
          <mxGeometry x="293" y="470" width="240" height="60" as="geometry" />
        </mxCell>
        <mxCell id="O932bBKoCJrC0d9glII3-6" value="แสดงผล Answer = sum" style="parallelogram;whiteSpace=wrap;html=1;" vertex="1" parent="1">
          <mxGeometry x="293" y="570" width="240" height="60" as="geometry" />
        </mxCell>
        <mxCell id="O932bBKoCJrC0d9glII3-7" value="Stop" style="ellipse;whiteSpace=wrap;html=1;" vertex="1" parent="1">
          <mxGeometry x="353" y="670" width="120" height="60" as="geometry" />
        </mxCell>
        <mxCell id="O932bBKoCJrC0d9glII3-8" style="edgeStyle=orthogonalEdgeStyle;rounded=0;orthogonalLoop=1;jettySize=auto;html=1;" edge="1" parent="1" source="O932bBKoCJrC0d9glII3-1" target="O932bBKoCJrC0d9glII3-2">
          <mxGeometry relative="1" as="geometry" />
        </mxCell>
        <mxCell id="O932bBKoCJrC0d9glII3-9" style="edgeStyle=orthogonalEdgeStyle;rounded=0;orthogonalLoop=1;jettySize=auto;html=1;" edge="1" parent="1" source="O932bBKoCJrC0d9glII3-2" target="O932bBKoCJrC0d9glII3-3">
          <mxGeometry relative="1" as="geometry" />
        </mxCell>
        <mxCell id="O932bBKoCJrC0d9glII3-10" style="edgeStyle=orthogonalEdgeStyle;rounded=0;orthogonalLoop=1;jettySize=auto;html=1;" edge="1" parent="1" source="O932bBKoCJrC0d9glII3-3" target="O932bBKoCJrC0d9glII3-4">
          <mxGeometry relative="1" as="geometry" />
        </mxCell>
        <mxCell id="O932bBKoCJrC0d9glII3-11" style="edgeStyle=orthogonalEdgeStyle;rounded=0;orthogonalLoop=1;jettySize=auto;html=1;" edge="1" parent="1" source="O932bBKoCJrC0d9glII3-4" target="O932bBKoCJrC0d9glII3-5">
          <mxGeometry relative="1" as="geometry" />
        </mxCell>
        <mxCell id="O932bBKoCJrC0d9glII3-12" style="edgeStyle=orthogonalEdgeStyle;rounded=0;orthogonalLoop=1;jettySize=auto;html=1;" edge="1" parent="1" source="O932bBKoCJrC0d9glII3-5" target="O932bBKoCJrC0d9glII3-6">
          <mxGeometry relative="1" as="geometry" />
        </mxCell>
        <mxCell id="O932bBKoCJrC0d9glII3-13" style="edgeStyle=orthogonalEdgeStyle;rounded=0;orthogonalLoop=1;jettySize=auto;html=1;" edge="1" parent="1" source="O932bBKoCJrC0d9glII3-6" target="O932bBKoCJrC0d9glII3-7">
          <mxGeometry relative="1" as="geometry" />
        </mxCell>
      </root>
    </mxGraphModel>
  </diagram>
</mxfile>
